<?xml version="1.0" encoding="UTF-8" standalone="no"?>
<svg
   id="Layer_1"
   viewBox="0 0 1109.361 126.80801"
   version="1.1"
   width="1109.361"
   height="126.80801"
   sodipodi:docname="bottom-slide.svg"
   inkscape:version="1.4.2 (f4327f4, 2025-05-13)"
   xmlns:inkscape="http://www.inkscape.org/namespaces/inkscape"
   xmlns:sodipodi="http://sodipodi.sourceforge.net/DTD/sodipodi-0.dtd"
   xmlns="http://www.w3.org/2000/svg"
   xmlns:svg="http://www.w3.org/2000/svg">
  <sodipodi:namedview
     id="namedview1"
     pagecolor="#ffffff"
     bordercolor="#000000"
     borderopacity="0.25"
     inkscape:showpageshadow="2"
     inkscape:pageopacity="0.0"
     inkscape:pagecheckerboard="0"
     inkscape:deskcolor="#d1d1d1"
     inkscape:zoom="3.2712527"
     inkscape:cx="554.68048"
     inkscape:cy="63.278512"
     inkscape:current-layer="Layer_1" />
  <defs
     id="defs2">
    <style
       id="style1">.cls-1,.cls-2,.cls-3{fill:none;}.cls-2{clip-path:url(#clippath-1);}.cls-4{fill:#419599;}.cls-5{fill:#9a4665;}.cls-3{clip-path:url(#clippath);}</style>
    <clipPath
       id="clippath-1">
      <rect
         class="cls-1"
         width="1152"
         height="648"
         id="rect2"
         x="0"
         y="0" />
    </clipPath>
  </defs>
  <g
     class="cls-2"
     clip-path="url(#clippath-1)"
     id="g618"
     style="fill:#062635;fill-opacity:1"
     transform="translate(-1.5024216,-53.810793)">
    <path
       class="cls-4"
       d="m 676.41334,60.716547 c 0.05,4.06 -2.45,6.7 -6.47,6.82 -3.96,0.11 -7.31,-2.89 -7.4,-6.63 -0.07,-3.24 3.44,-6.95 6.71,-7.09 3.79,-0.16 7.11,3.04 7.16,6.9 z"
       id="path482"
       style="fill:#062635;fill-opacity:1" />
    <path
       class="cls-4"
       d="m 847.44334,173.84655 c 0,3.87 -2.76,6.69 -6.63,6.77 -3.97,0.08 -7.2,-2.97 -7.22,-6.81 -0.02,-3.5 3.24,-6.83 6.75,-6.92 3.78,-0.09 7.11,3.17 7.11,6.96 z"
       id="path483"
       style="fill:#062635;fill-opacity:1" />
    <path
       class="cls-4"
       d="m 821.53334,124.15655 c -4.14,-0.03 -6.82,-2.86 -6.7,-7.09 0.1,-3.66 3.2,-6.66 6.88,-6.65 3.64,0.01 6.79,3.12 6.84,6.76 0.05,3.85 -3.12,7 -7.02,6.98 z"
       id="path484"
       style="fill:#062635;fill-opacity:1" />
    <path
       class="cls-4"
       d="m 51.723343,136.29655 c -0.05,3.67 -3.19,6.8 -6.79,6.78 -3.99,-0.03 -7.03,-3.12 -6.95,-7.08 0.07,-3.64 3.66,-7 7.3,-6.82 3.64,0.18 6.5,3.34 6.45,7.12 z"
       id="path485"
       style="fill:#062635;fill-opacity:1" />
    <path
       class="cls-4"
       d="m 184.65334,117.43655 c -0.07,4.15 -2.92,6.86 -7.07,6.73 -3.67,-0.12 -6.7,-3.27 -6.61,-6.86 0.09,-3.74 3.6,-7.06 7.22,-6.84 3.78,0.23 6.52,3.2 6.46,6.98 z"
       id="path486"
       style="fill:#062635;fill-opacity:1" />
    <path
       class="cls-4"
       d="m 688.49334,143.06655 c -3.67,0 -6.64,-3.03 -6.65,-6.77 -0.02,-4 3.09,-7.23 6.85,-7.13 3.48,0.09 6.77,3.37 6.86,6.83 0.1,3.65 -3.32,7.07 -7.05,7.07 z"
       id="path487"
       style="fill:#062635;fill-opacity:1" />
    <path
       class="cls-4"
       d="m 197.04334,180.61655 c -3.93,0.09 -6.72,-2.52 -6.89,-6.44 -0.17,-3.9 2.93,-7.29 6.66,-7.29 3.58,0 7.15,3.54 7.17,7.09 0.01,3.44 -3.25,6.55 -6.94,6.63 z"
       id="path488"
       style="fill:#062635;fill-opacity:1" />
    <path
       class="cls-4"
       d="m 25.943343,53.826547 c 3.62,0.1 7.09,3.67 7.01,7.23 -0.08,3.75 -3.45,6.68 -7.45,6.48 -3.94,-0.2 -6.52,-3.01 -6.37,-6.95 0.14,-3.66 3.34,-6.85 6.81,-6.75 z"
       id="path489"
       style="fill:#062635;fill-opacity:1" />
    <path
       class="cls-4"
       d="m 783.84334,142.49655 c -3.56,0.12 -6.68,-2.6 -6.92,-6.02 -0.24,-3.39 3.02,-6.91 6.47,-6.99 3.56,-0.08 6.9,3.07 6.93,6.54 0.04,3.37 -2.95,6.35 -6.49,6.47 z"
       id="path490"
       style="fill:#062635;fill-opacity:1" />
    <path
       class="cls-4"
       d="m 315.35334,173.78655 c -0.01,3.54 -2.84,6.37 -6.47,6.48 -3.75,0.11 -7.07,-2.88 -7.09,-6.39 -0.02,-3.49 3.27,-6.53 6.99,-6.46 3.5,0.06 6.59,3.05 6.57,6.37 z"
       id="path491"
       style="fill:#062635;fill-opacity:1" />
    <path
       class="cls-4"
       d="m 146.43334,136.10655 c 0,3.82 -2.56,6.36 -6.42,6.39 -3.91,0.03 -6.49,-2.43 -6.51,-6.22 -0.02,-4.02 2.71,-6.84 6.58,-6.79 3.44,0.05 6.36,3.09 6.35,6.62 z"
       id="path492"
       style="fill:#062635;fill-opacity:1" />
    <path
       class="cls-4"
       d="m 63.893343,167.16655 c 3.57,0.03 6.62,3.2 6.59,6.84 -0.03,3.64 -2.83,6.36 -6.47,6.27 -3.83,-0.1 -6.53,-2.64 -6.59,-6.22 -0.06,-3.85 2.82,-6.93 6.47,-6.89 z"
       id="path493"
       style="fill:#062635;fill-opacity:1" />
    <path
       class="cls-4"
       d="m 708.01334,180.30655 c -3.98,0.13 -6.59,-2.19 -6.74,-5.98 -0.17,-4.04 2.51,-7.08 6.22,-7.09 3.25,0 6.61,3.13 6.86,6.39 0.25,3.29 -2.86,6.56 -6.33,6.67 z"
       id="path494"
       style="fill:#062635;fill-opacity:1" />
    <path
       class="cls-4"
       d="m 390.97334,136.13655 c -0.05,3.2 -3.02,6.15 -6.29,6.22 -3.4,0.08 -6.58,-3.06 -6.58,-6.48 0,-3.14 3.08,-6.16 6.33,-6.21 3.39,-0.05 6.58,3.1 6.53,6.46 z"
       id="path495"
       style="fill:#062635;fill-opacity:1" />
    <path
       class="cls-4"
       d="m 631.44334,179.68655 c -3.74,-0.11 -6.34,-2.85 -6.21,-6.53 0.11,-3.15 3.19,-6.01 6.43,-5.96 3.38,0.05 6.41,3.29 6.22,6.67 -0.19,3.49 -2.88,5.93 -6.44,5.83 z"
       id="path496"
       style="fill:#062635;fill-opacity:1" />
    <path
       class="cls-4"
       d="m 802.47334,167.62655 c 3.27,-0.05 6.32,2.77 6.48,5.97 0.17,3.51 -2.74,6.54 -6.3,6.57 -3.45,0.02 -6.27,-2.6 -6.39,-5.96 -0.13,-3.65 2.59,-6.53 6.21,-6.58 z"
       id="path497"
       style="fill:#062635;fill-opacity:1" />
    <path
       class="cls-4"
       d="m 32.223343,155.83655 c -0.4,3.48 -3.76,6.12 -7.15,5.61 -3.2,-0.48 -5.81,-3.81 -5.42,-6.93 0.46,-3.7 3.32,-5.88 7.18,-5.47 3.26,0.35 5.77,3.51 5.4,6.79 z"
       id="path498"
       style="fill:#062635;fill-opacity:1" />
    <path
       class="cls-4"
       d="m 669.58334,161.26655 c -3.56,0 -6.12,-2.44 -6.24,-5.94 -0.12,-3.67 2.58,-6.38 6.3,-6.31 3.55,0.07 6.22,2.57 6.36,5.96 0.15,3.61 -2.58,6.28 -6.42,6.29 z"
       id="path499"
       style="fill:#062635;fill-opacity:1" />
    <path
       class="cls-4"
       d="m 165.15334,173.99655 c -0.03,3.39 -2.76,6.08 -6.24,6.15 -3.68,0.08 -5.94,-2.24 -5.97,-6.12 -0.03,-3.82 2.23,-6.34 5.75,-6.4 3.72,-0.07 6.49,2.66 6.46,6.37 z"
       id="path500"
       style="fill:#062635;fill-opacity:1" />
    <path
       class="cls-4"
       d="m 808.73334,79.38655 c 0.09,3.32 -2.79,6.43 -5.99,6.45 -3.16,0.02 -6.35,-3.1 -6.33,-6.2 0.02,-3.13 2.67,-5.880003 5.86,-6.080003 3.48,-0.22 6.37,2.390003 6.46,5.830003 z"
       id="path501"
       style="fill:#062635;fill-opacity:1" />
    <path
       class="cls-4"
       d="m 101.54334,161.02655 c -3.049997,-0.07 -5.929997,-3.31 -5.809997,-6.54 0.13,-3.47 2.71,-5.67 6.519997,-5.55 3.54,0.12 6.08,2.82 5.87,6.24 -0.19,3.16 -3.29,5.92 -6.58,5.85 z"
       id="path502"
       style="fill:#062635;fill-opacity:1" />
    <path
       class="cls-4"
       d="m 808.74334,136.15655 c 0,3.3 -2.89,6.13 -6.28,6.16 -3.13,0.03 -6.22,-3.21 -6.06,-6.38 0.15,-3.05 3.09,-5.94 6.05,-5.93 3.27,0.01 6.29,2.96 6.29,6.15 z"
       id="path503"
       style="fill:#062635;fill-opacity:1" />
    <path
       class="cls-4"
       d="m 152.98334,79.84655 c -0.11,-3.52 2.08,-6.080003 5.38,-6.290003 3.35,-0.22 6.6,2.490003 6.75,5.630003 0.15,3.09 -2.87,6.55 -5.83,6.68 -3.37,0.15 -6.19,-2.54 -6.29,-6.01 z"
       id="path504"
       style="fill:#062635;fill-opacity:1" />
    <path
       class="cls-4"
       d="m 751.62334,154.76655 c 0.03,3.47 -2.62,6.21 -6.06,6.28 -3.37,0.07 -5.95,-2.67 -5.96,-6.3 0,-3.61 2.06,-5.7 5.73,-5.79 3.75,-0.1 6.26,2.22 6.29,5.82 z"
       id="path505"
       style="fill:#062635;fill-opacity:1" />
    <path
       class="cls-4"
       d="m 542.54334,173.47655 c 0.07,3.7 -2.25,6.14 -5.9,6.21 -3.58,0.06 -6.22,-2.47 -6.22,-5.96 0,-3.17 2.59,-5.89 5.78,-6.08 3.48,-0.2 6.28,2.36 6.34,5.82 z"
       id="path506"
       style="fill:#062635;fill-opacity:1" />
    <path
       class="cls-4"
       d="m 26.043343,179.79655 c -4.03,0.07 -6.02,-1.85 -5.99,-5.81 0.02,-3.35 2.43,-6.08 5.5,-6.24 3.12,-0.16 6.62,3.29 6.56,6.47 -0.06,3.18 -2.6,5.51 -6.07,5.57 z"
       id="path507"
       style="fill:#062635;fill-opacity:1" />
    <path
       class="cls-4"
       d="m 25.703343,142.36655 c -3.43,-0.1 -5.83,-2.84 -5.65,-6.44 0.17,-3.32 2.77,-5.9 5.87,-5.84 3.18,0.07 6.27,3.2 6.18,6.26 -0.09,3.16 -3.24,6.11 -6.41,6.02 z"
       id="path508"
       style="fill:#062635;fill-opacity:1" />
    <path
       class="cls-4"
       d="m 153.01334,136.23655 c -0.03,-3.38 2.35,-6.04 5.53,-6.19 3.24,-0.15 6.49,2.73 6.57,5.83 0.08,3.33 -3.13,6.52 -6.5,6.46 -3.2,-0.06 -5.56,-2.64 -5.59,-6.1 z"
       id="path509"
       style="fill:#062635;fill-opacity:1" />
    <path
       class="cls-4"
       d="m 675.52334,136.56655 c -0.1,3.28 -2.64,5.8 -5.87,5.81 -3.24,0.01 -6.26,-2.98 -6.19,-6.14 0.07,-3.28 3.04,-6.2 6.23,-6.14 3.09,0.06 5.92,3.21 5.83,6.47 z"
       id="path510"
       style="fill:#062635;fill-opacity:1" />
    <path
       class="cls-4"
       d="m 20.133343,80.01655 c -0.08,-3.81 1.77,-5.97 5.26,-6.120003 3.64,-0.16 6.4,2.180003 6.57,5.560003 0.16,3.08 -2.86,6.25 -6.06,6.39 -3.14,0.13 -5.7,-2.45 -5.77,-5.83 z"
       id="path511"
       style="fill:#062635;fill-opacity:1" />
    <path
       class="cls-4"
       d="m 390.78334,173.58655 c 0.01,3.33 -2.88,6.1 -6.32,6.08 -3.36,-0.02 -5.67,-2.44 -5.69,-5.96 -0.02,-3.47 2.29,-5.98 5.6,-6.09 3.41,-0.12 6.39,2.66 6.41,5.97 z"
       id="path512"
       style="fill:#062635;fill-opacity:1" />
    <path
       class="cls-4"
       d="m 38.843343,154.38655 c 0.41,-3.24 3.63,-5.66 6.98,-5.25 3.15,0.39 5.36,3.32 4.96,6.6 -0.41,3.37 -3.56,5.82 -6.85,5.31 -3.06,-0.47 -5.48,-3.64 -5.09,-6.65 z"
       id="path513"
       style="fill:#062635;fill-opacity:1" />
    <path
       class="cls-4"
       d="m 340.76334,154.73655 c 0.06,-3.55 2.26,-5.73 5.8,-5.73 3.31,0 6.06,2.52 6.13,5.61 0.07,3.13 -3.07,6.49 -6.02,6.44 -3.41,-0.05 -5.97,-2.79 -5.91,-6.32 z"
       id="path514"
       style="fill:#062635;fill-opacity:1" />
    <path
       class="cls-4"
       d="m 618.65334,173.86655 c -0.11,3.18 -2.77,5.67 -6.07,5.66 -3.63,0 -6.01,-2.5 -5.89,-6.16 0.11,-3.34 2.6,-5.76 5.91,-5.74 3.32,0.01 6.17,2.95 6.05,6.24 z"
       id="path515"
       style="fill:#062635;fill-opacity:1" />
    <path
       class="cls-4"
       d="m 612.69334,111.02655 c 3.35,0.12 6.14,3.08 5.97,6.33 -0.16,3.11 -2.97,5.69 -6.13,5.66 -3.44,-0.04 -6.04,-2.86 -5.82,-6.31 0.21,-3.36 2.78,-5.79 5.99,-5.68 z"
       id="path516"
       style="fill:#062635;fill-opacity:1" />
    <path
       class="cls-4"
       d="m 403.70334,130.43655 c 3.33,0.08 5.88,2.58 5.9,5.77 0.02,3.3 -2.9,6.18 -6.2,6.11 -3.16,-0.06 -5.85,-2.75 -5.9,-5.9 -0.05,-3.34 2.77,-6.06 6.2,-5.98 z"
       id="path517"
       style="fill:#062635;fill-opacity:1" />
    <path
       class="cls-4"
       d="m 675.53334,174.04655 c 0.05,3.51 -2.12,5.65 -5.81,5.75 -3.47,0.09 -6.07,-2.17 -6.25,-5.43 -0.18,-3.14 2.83,-6.48 5.94,-6.6 3.22,-0.13 6.07,2.79 6.12,6.29 z"
       id="path518"
       style="fill:#062635;fill-opacity:1" />
    <path
       class="cls-4"
       d="m 183.84334,136.33655 c 0,3.39 -2.87,6.14 -6.21,5.99 -2.96,-0.14 -5.89,-3.18 -5.84,-6.06 0.06,-3.13 2.7,-5.74 5.89,-5.82 3.6,-0.09 6.17,2.38 6.16,5.89 z"
       id="path519"
       style="fill:#062635;fill-opacity:1" />
    <path
       class="cls-4"
       d="m 815.67334,135.79655 c 0.26,-3.4 3.12,-5.68 6.7,-5.34 3.12,0.3 5.6,3.25 5.32,6.34 -0.26,2.89 -3.5,5.68 -6.39,5.5 -3.47,-0.22 -5.91,-3.03 -5.64,-6.5 z"
       id="path520"
       style="fill:#062635;fill-opacity:1" />
    <path
       class="cls-4"
       d="m 688.43334,161.07655 c -3.28,-0.04 -5.66,-2.51 -5.71,-5.91 -0.05,-3.55 2.55,-6.15 6.03,-6.07 3.01,0.07 6,3.02 5.97,5.88 -0.04,3.1 -3.18,6.15 -6.29,6.11 z"
       id="path521"
       style="fill:#062635;fill-opacity:1" />
    <path
       class="cls-4"
       d="m 783.36334,160.99655 c -3.35,-0.14 -5.87,-3.09 -5.62,-6.59 0.23,-3.19 2.6,-5.35 5.81,-5.31 3.33,0.04 6.31,3.09 6.09,6.22 -0.19,2.81 -3.49,5.79 -6.28,5.67 z"
       id="path522"
       style="fill:#062635;fill-opacity:1" />
    <path
       class="cls-4"
       d="m 637.44334,154.43655 c 0.04,3.45 -2.71,6.36 -6.01,6.37 -2.86,0 -5.93,-3.11 -5.97,-6.05 -0.05,-3.16 2.62,-5.75 5.94,-5.78 3.74,-0.04 6,2.01 6.04,5.47 z"
       id="path523"
       style="fill:#062635;fill-opacity:1" />
    <path
       class="cls-4"
       d="m 675.44334,79.74655 c -0.01,3.15 -2.76,6.03 -5.82,6.09 -3.13,0.07 -6.27,-3.19 -6.13,-6.35 0.14,-3.29 2.76,-5.680003 6.13,-5.610003 3.44,0.07 5.82,2.480003 5.81,5.870003 z"
       id="path524"
       style="fill:#062635;fill-opacity:1" />
    <path
       class="cls-4"
       d="m 145.71334,155.11655 c -0.05,3.13 -2.72,5.82 -5.84,5.88 -2.86,0.06 -5.94,-2.96 -6.01,-5.88 -0.07,-3.17 3.01,-6.13 6.26,-6.02 3.3,0.11 5.63,2.63 5.58,6.01 z"
       id="path525"
       style="fill:#062635;fill-opacity:1" />
    <path
       class="cls-4"
       d="m 384.70334,92.37655 c 3.19,0 5.78,2.61 5.79,5.84 0.01,3.29 -2.57,5.95 -5.76,5.94 -3.57,-0.01 -5.85,-2.18 -5.93,-5.63 -0.08,-3.64 2.33,-6.15 5.9,-6.16 z"
       id="path526"
       style="fill:#062635;fill-opacity:1" />
    <path
       class="cls-4"
       d="m 808.37334,98.54655 c 0,3.37 -2.51,5.9 -5.84,5.89 -2.93,-0.01 -6.13,-3.14 -6.08,-5.95 0.05,-2.79 3.36,-6.01 6.13,-5.96 3.2,0.06 5.79,2.75 5.79,6.02 z"
       id="path527"
       style="fill:#062635;fill-opacity:1" />
    <path
       class="cls-4"
       d="m 158.91334,104.43655 c -3.24,-0.04 -5.87,-2.7 -5.86,-5.93 0.02,-3.19 2.73,-5.97 5.84,-5.99 2.85,-0.01 5.97,3.13 5.97,6.01 0,3.13 -2.84,5.95 -5.95,5.91 z"
       id="path529"
       style="fill:#062635;fill-opacity:1" />
    <path
       class="cls-4"
       d="m 139.95334,111.43655 c 3.24,-0.03 5.67,2.52 5.66,5.92 -0.01,3.01 -2.49,5.52 -5.52,5.59 -3.02,0.07 -6.07,-2.77 -6.12,-5.7 -0.05,-2.96 2.85,-5.78 5.99,-5.8 z"
       id="path530"
       style="fill:#062635;fill-opacity:1" />
    <path
       class="cls-4"
       d="m 853.88334,117.33655 c -0.02,-3.4 2.43,-5.95 5.66,-5.9 3.21,0.05 5.89,2.69 5.92,5.84 0.03,2.91 -3.04,5.76 -6.09,5.66 -3.08,-0.1 -5.47,-2.55 -5.49,-5.6 z"
       id="path531"
       style="fill:#062635;fill-opacity:1" />
    <path
       class="cls-4"
       d="m 302.84334,154.81655 c 0.09,-3.3 2.75,-5.81 5.95,-5.62 3,0.18 5.82,3.25 5.64,6.16 -0.17,2.78 -3.04,5.47 -5.87,5.5 -2.95,0.03 -5.81,-2.99 -5.72,-6.04 z"
       id="path532"
       style="fill:#062635;fill-opacity:1" />
    <path
       class="cls-4"
       d="m 550.01334,154.32655 c 0.29,-3.32 3.04,-5.53 6.35,-5.11 2.82,0.36 5.35,3.38 5.12,6.09 -0.27,3.12 -3.21,5.62 -6.34,5.38 -3.31,-0.26 -5.44,-2.89 -5.13,-6.36 z"
       id="path533"
       style="fill:#062635;fill-opacity:1" />
    <path
       class="cls-4"
       d="m 707.49334,149.13655 c 3.13,-0.03 5.97,2.81 5.93,5.92 -0.04,2.79 -2.86,5.6 -5.73,5.72 -2.81,0.11 -5.77,-2.64 -5.91,-5.5 -0.15,-3.12 2.64,-6.12 5.71,-6.15 z"
       id="path534"
       style="fill:#062635;fill-opacity:1" />
    <path
       class="cls-4"
       d="m 58.273343,155.17655 c -0.06,-3.37 2.46,-6.06 5.65,-6.05 2.99,0.01 5.53,2.53 5.66,5.6 0.13,3.23 -2.59,6.13 -5.66,6.05 -3.16,-0.08 -5.59,-2.49 -5.65,-5.6 z"
       id="path535"
       style="fill:#062635;fill-opacity:1" />
    <path
       class="cls-4"
       d="m 221.69334,117.16655 c 0.02,3.21 -2.7,5.87 -5.93,5.79 -2.89,-0.07 -5.56,-2.76 -5.62,-5.69 -0.06,-2.93 2.53,-5.68 5.48,-5.8 3.16,-0.13 6.05,2.58 6.07,5.7 z"
       id="path536"
       style="fill:#062635;fill-opacity:1" />
    <path
       class="cls-4"
       d="m 777.77334,117.17655 c -0.02,-3.06 2.92,-5.82 6.07,-5.71 2.94,0.1 5.54,2.85 5.5,5.79 -0.05,2.93 -2.7,5.63 -5.61,5.7 -3.21,0.08 -5.94,-2.57 -5.96,-5.78 z"
       id="path537"
       style="fill:#062635;fill-opacity:1" />
    <path
       class="cls-4"
       d="m 650.39334,149.09655 c 3.22,-0.03 5.93,2.56 6.02,5.76 0.08,2.97 -2.44,5.43 -5.62,5.5 -3.22,0.07 -5.81,-2.19 -5.94,-5.18 -0.15,-3.3 2.35,-6.05 5.55,-6.08 z"
       id="path538"
       style="fill:#062635;fill-opacity:1" />
    <path
       class="cls-4"
       d="m 327.66334,141.56655 c -3.38,0.01 -5.81,-2.08 -5.96,-5.14 -0.14,-3.01 2.69,-5.94 5.78,-5.97 3.22,-0.03 5.93,2.63 5.88,5.78 -0.05,3.08 -2.44,5.32 -5.71,5.33 z"
       id="path539"
       style="fill:#062635;fill-opacity:1" />
    <path
       class="cls-4"
       d="m 745.59334,141.54655 c -3.13,0 -5.58,-2.43 -5.6,-5.54 -0.02,-3.25 2.2,-5.51 5.47,-5.57 3.33,-0.06 6.1,2.57 5.98,5.66 -0.11,2.92 -2.83,5.45 -5.85,5.44 z"
       id="path540"
       style="fill:#062635;fill-opacity:1" />
    <path
       class="cls-4"
       d="m 650.48334,92.47655 c 3.03,-0.02 5.96,2.92 5.87,5.89 -0.1,3.18 -2.42,5.37 -5.68,5.38 -3.24,0.01 -5.73,-2.22 -5.82,-5.24 -0.1,-3.25 2.48,-6.01 5.63,-6.03 z"
       id="path541"
       style="fill:#062635;fill-opacity:1" />
    <path
       class="cls-4"
       d="m 346.75334,92.47655 c 2.74,0.1 5.66,3.01 5.66,5.67 0,3.16 -2.72,5.69 -6.01,5.59 -3.21,-0.1 -5.61,-2.47 -5.57,-5.49 0.05,-3.21 2.79,-5.88 5.91,-5.77 z"
       id="path542"
       style="fill:#062635;fill-opacity:1" />
    <path
       class="cls-4"
       d="m 31.333343,98.45655 c 0.07,3.22 -2.15,5.68 -5.26,5.85 -2.93,0.16 -5.57,-2.35 -5.73,-5.46 -0.15,-2.96 2.4,-5.72 5.37,-5.83 3.12,-0.11 5.55,2.24 5.62,5.43 z"
       id="path543"
       style="fill:#062635;fill-opacity:1" />
    <path
       class="cls-4"
       d="m 669.79334,93.02655 c 2.92,0.11 5.58,2.95 5.45,5.82 -0.14,3.06 -2.79,5.58 -5.76,5.46 -3.06,-0.12 -5.36,-2.65 -5.31,-5.85 0.05,-3.25 2.43,-5.55 5.62,-5.43 z"
       id="path544"
       style="fill:#062635;fill-opacity:1" />
    <path
       class="cls-4"
       d="m 107.57334,136.42655 c -0.25,3.03 -2.91,5.31 -5.99,5.12 -3.289997,-0.2 -5.539997,-2.93 -5.179997,-6.32 0.33,-3.14 2.83,-5.07 6.149997,-4.77 3.19,0.29 5.28,2.78 5.01,5.97 z"
       id="path546"
       style="fill:#062635;fill-opacity:1" />
    <path
       class="cls-4"
       d="m 617.89334,154.81655 c 0.02,3.5 -1.9,5.48 -5.3,5.45 -3.12,-0.02 -5.67,-2.39 -5.76,-5.34 -0.09,-3.12 2.65,-5.85 5.86,-5.82 3.14,0.03 5.19,2.27 5.2,5.71 z"
       id="path547"
       style="fill:#062635;fill-opacity:1" />
    <path
       class="cls-4"
       d="m 617.89334,135.79655 c 0.03,3.46 -1.95,5.66 -5.16,5.73 -3.2,0.07 -6.01,-2.64 -5.91,-5.73 0.09,-3.07 2.5,-5.34 5.69,-5.37 3.47,-0.03 5.35,1.84 5.38,5.37 z"
       id="path548"
       style="fill:#062635;fill-opacity:1" />
    <path
       class="cls-4"
       d="m 398.21334,155.18655 c -0.05,-3.17 2.29,-5.75 5.25,-5.81 3.02,-0.06 5.74,2.84 5.67,6.03 -0.07,2.88 -2.81,5.58 -5.66,5.58 -2.88,0 -5.22,-2.58 -5.26,-5.8 z"
       id="path549"
       style="fill:#062635;fill-opacity:1" />
    <path
       class="cls-4"
       d="m 352.05334,136.43655 c -0.21,3.12 -2.88,5.41 -5.96,5.1 -3.09,-0.3 -5.34,-2.94 -5.14,-6.04 0.19,-3 2.91,-5.26 6.06,-5.04 3.16,0.22 5.27,2.71 5.05,5.97 z"
       id="path550"
       style="fill:#062635;fill-opacity:1" />
    <path
       class="cls-4"
       d="m 808.07334,117.27655 c 0,3.21 -2.34,5.64 -5.48,5.68 -3,0.04 -5.57,-2.61 -5.48,-5.66 0.1,-3.29 2.37,-5.4 5.73,-5.31 3.1,0.08 5.23,2.23 5.24,5.28 z"
       id="path551"
       style="fill:#062635;fill-opacity:1" />
    <path
       class="cls-4"
       d="m 158.92334,111.98655 c 3.44,-0.04 5.4,1.99 5.33,5.53 -0.05,3.01 -2.32,5.39 -5.17,5.44 -3.04,0.06 -5.8,-2.54 -5.79,-5.46 0,-3.1 2.43,-5.48 5.63,-5.51 z"
       id="path552"
       style="fill:#062635;fill-opacity:1" />
    <path
       class="cls-4"
       d="m 694.02334,173.95655 c 0.02,3.05 -2.52,5.53 -5.61,5.48 -3.03,-0.05 -5.51,-2.68 -5.42,-5.74 0.08,-2.86 2.41,-5.03 5.46,-5.09 3.36,-0.06 5.55,2.05 5.57,5.35 z"
       id="path553"
       style="fill:#062635;fill-opacity:1" />
    <path
       class="cls-4"
       d="m 859.51334,160.26655 c -3.18,0 -5.66,-2.45 -5.54,-5.49 0.11,-2.82 2.55,-5.33 5.31,-5.46 2.99,-0.14 5.63,2.38 5.7,5.44 0.07,3.2 -2.21,5.5 -5.47,5.51 z"
       id="path554"
       style="fill:#062635;fill-opacity:1" />
    <path
       class="cls-4"
       d="m 385.25334,111.64655 c 3.05,0.38 5.28,3.25 4.83,6.22 -0.4,2.64 -3.41,5.05 -5.97,4.79 -2.86,-0.3 -5.42,-3.39 -5.1,-6.16 0.35,-2.97 3.25,-5.22 6.24,-4.85 z"
       id="path555"
       style="fill:#062635;fill-opacity:1" />
    <path
       class="cls-4"
       d="m 351.96334,79.23655 c 0.1,3.09 -2.31,5.64 -5.38,5.69 -2.79,0.04 -5.32,-2.34 -5.5,-5.17 -0.2,-3.14 2.11,-5.74 5.19,-5.860003 3.13,-0.12 5.59,2.180003 5.69,5.340003 z"
       id="path556"
       style="fill:#062635;fill-opacity:1" />
    <path
       class="cls-4"
       d="m 215.91334,160.26655 c -3.42,0 -5.46,-2.04 -5.4,-5.42 0.05,-2.87 2.42,-5.39 5.15,-5.5 2.81,-0.11 5.66,2.61 5.79,5.5 0.13,3.06 -2.28,5.42 -5.54,5.42 z"
       id="path557"
       style="fill:#062635;fill-opacity:1" />
    <path
       class="cls-4"
       d="m 177.97334,160.36655 c -3.27,0.07 -5.31,-1.77 -5.43,-4.87 -0.12,-3.09 2.29,-5.96 5.09,-6.04 2.88,-0.09 5.96,3.02 5.89,5.95 -0.06,2.74 -2.48,4.9 -5.55,4.96 z"
       id="path558"
       style="fill:#062635;fill-opacity:1" />
    <path
       class="cls-4"
       d="m 44.743343,168.60655 c 3.2,-0.07 5.68,2.21 5.75,5.28 0.07,3.03 -2.4,5.49 -5.55,5.52 -2.85,0.02 -5.31,-2.3 -5.42,-5.12 -0.13,-3.26 2.03,-5.61 5.22,-5.68 z"
       id="path559"
       style="fill:#062635;fill-opacity:1" />
    <path
       class="cls-4"
       d="m 827.04334,155.26655 c 0,3.06 -2.1,5.06 -5.34,5.1 -3.28,0.04 -5.78,-2.31 -5.68,-5.36 0.09,-2.67 2.86,-5.48 5.4,-5.48 2.7,0 5.62,2.99 5.62,5.73 z"
       id="path560"
       style="fill:#062635;fill-opacity:1" />
    <path
       class="cls-4"
       d="m 645.52334,117.28655 c -0.1,-3.34 1.72,-5.32 4.91,-5.34 2.93,-0.02 5.44,2.28 5.5,5.05 0.06,2.7 -2.48,5.44 -5.16,5.54 -2.84,0.11 -5.16,-2.2 -5.25,-5.24 z"
       id="path561"
       style="fill:#062635;fill-opacity:1" />
    <path
       class="cls-4"
       d="m 101.72334,178.54655 c -2.889997,-0.1 -5.049997,-2.28 -4.969997,-5.01 0.08,-2.68 2.56,-5.01 5.189997,-4.89 2.91,0.13 4.79,2.18 4.74,5.17 -0.05,3.17 -1.81,4.85 -4.97,4.74 z"
       id="path562"
       style="fill:#062635;fill-opacity:1" />
    <path
       class="cls-4"
       d="m 745.81334,178.54655 c -3.01,0.11 -5.13,-1.77 -5.25,-4.65 -0.12,-2.83 1.95,-5.13 4.73,-5.26 2.65,-0.12 5.14,2.14 5.28,4.8 0.16,2.93 -1.78,5.01 -4.76,5.11 z"
       id="path563"
       style="fill:#062635;fill-opacity:1" />
    <path
       class="cls-4"
       d="m 560.12334,173.97655 c -0.05,2.58 -2.23,4.67 -4.73,4.53 -2.37,-0.13 -4.61,-2.59 -4.47,-4.91 0.14,-2.33 2.1,-4.1 4.6,-4.14 2.73,-0.05 4.66,1.85 4.6,4.53 z"
       id="path564"
       style="fill:#062635;fill-opacity:1" />
    <path
       class="cls-4"
       d="m 859.51334,140.67655 c -2.37,-0.09 -4.72,-2.62 -4.55,-4.91 0.17,-2.34 2.24,-4.16 4.73,-4.15 2.53,0.01 4.39,1.85 4.39,4.32 0,2.71 -2.04,4.83 -4.56,4.73 z"
       id="path565"
       style="fill:#062635;fill-opacity:1" />
    <path
       class="cls-4"
       d="m 211.59334,136.15655 c -0.07,-2.66 1.53,-4.44 4.06,-4.54 2.55,-0.09 4.79,1.96 4.89,4.48 0.09,2.32 -2.33,4.65 -4.77,4.59 -2.41,-0.06 -4.12,-1.91 -4.18,-4.53 z"
       id="path566"
       style="fill:#062635;fill-opacity:1" />
    <path
       class="cls-4"
       d="m 346.31334,121.38655 c -2.57,-0.09 -4.41,-1.86 -4.43,-4.27 -0.02,-2.45 2.26,-4.63 4.77,-4.55 2.6,0.08 4.54,2.27 4.34,4.89 -0.19,2.51 -2,4.03 -4.67,3.93 z"
       id="path567"
       style="fill:#062635;fill-opacity:1" />
    <path
       class="cls-4"
       d="m 650.56334,169.35655 c 2.68,0.01 4.38,1.64 4.41,4.21 0.03,2.69 -2.03,4.9 -4.47,4.79 -2.36,-0.11 -4.71,-2.6 -4.6,-4.89 0.11,-2.36 2.11,-4.12 4.67,-4.11 z"
       id="path568"
       style="fill:#062635;fill-opacity:1" />
    <path
       class="cls-4"
       d="m 216.04334,177.84655 c -2.49,0.05 -4.09,-1.39 -4.24,-3.8 -0.15,-2.42 1.35,-4.14 3.74,-4.28 2.6,-0.16 4.47,1.54 4.46,4.07 0,2.51 -1.44,3.97 -3.97,4.02 z"
       id="path569"
       style="fill:#062635;fill-opacity:1" />
    <path
       class="cls-4"
       d="m 859.48334,177.83655 c -2.63,-0.01 -3.89,-1.38 -3.82,-4.11 0.07,-2.48 1.72,-4.08 4.11,-3.97 2.3,0.11 4.19,2.05 4.08,4.21 -0.11,2.26 -1.95,3.88 -4.37,3.86 z"
       id="path570"
       style="fill:#062635;fill-opacity:1" />
    <path
       class="cls-4"
       d="m 350.72334,60.686547 c -0.11,2.07 -2.31,4 -4.39,3.86 -2.06,-0.14 -4.08,-2.34 -3.99,-4.35 0.09,-1.93 2.39,-3.88 4.48,-3.8 2.19,0.09 4.02,2.1 3.9,4.29 z"
       id="path571"
       style="fill:#062635;fill-opacity:1" />
    <path
       class="cls-4"
       d="m 159.06334,150.97655 c 2.2,0.1 4.05,2.1 3.96,4.27 -0.09,2.31 -1.96,4.07 -4.2,3.98 -2.22,-0.09 -4.03,-2.02 -3.98,-4.24 0.05,-2.13 2.13,-4.11 4.22,-4.01 z"
       id="path572"
       style="fill:#062635;fill-opacity:1" />
    <path
       class="cls-4"
       d="m 654.73334,60.226547 c 0.05,2.1 -1.83,4.16 -3.95,4.32 -2.17,0.16 -4.14,-1.65 -4.22,-3.88 -0.08,-2.24 1.63,-4.14 3.86,-4.27 2.2,-0.14 4.25,1.7 4.31,3.84 z"
       id="path573"
       style="fill:#062635;fill-opacity:1" />
    <path
       class="cls-4"
       d="m 536.35334,150.86655 c 2.22,-0.11 4.13,1.63 4.25,3.86 0.12,2.23 -1.63,4.13 -3.9,4.25 -2.09,0.11 -4.25,-1.83 -4.3,-3.88 -0.06,-2.15 1.78,-4.12 3.95,-4.23 z"
       id="path574"
       style="fill:#062635;fill-opacity:1" />
    <path
       class="cls-4"
       d="m 646.62334,79.34655 c -0.04,-2.3 1.72,-4.22 3.89,-4.24 2.09,-0.02 4.08,1.91 4.2,4.06 0.12,2.2 -1.68,4.07 -3.97,4.12 -2.34,0.05 -4.07,-1.61 -4.12,-3.94 z"
       id="path575"
       style="fill:#062635;fill-opacity:1" />
    <path
       class="cls-4"
       d="m 802.42334,159.21655 c -2.06,-0.12 -4.16,-2.28 -4.1,-4.22 0.06,-1.97 2.27,-4.03 4.31,-4.01 2.16,0.02 3.97,1.97 3.92,4.22 -0.06,2.25 -1.99,4.13 -4.12,4.01 z"
       id="path576"
       style="fill:#062635;fill-opacity:1" />
    <path
       class="cls-4"
       d="m 787.50334,173.58655 c 0.12,1.98 -1.57,3.95 -3.54,4.13 -2.11,0.2 -4,-1.28 -4.25,-3.34 -0.26,-2.15 1.58,-4.36 3.71,-4.46 1.9,-0.09 3.97,1.77 4.08,3.66 z"
       id="path577"
       style="fill:#062635;fill-opacity:1" />
    <path
       class="cls-4"
       d="m 143.70334,173.80655 c -0.03,2.26 -1.9,4.05 -4.12,3.93 -2.05,-0.11 -3.41,-1.79 -3.31,-4.11 0.09,-2.23 1.72,-3.84 3.75,-3.71 2.11,0.13 3.71,1.82 3.69,3.89 z"
       id="path578"
       style="fill:#062635;fill-opacity:1" />
    <path
       class="cls-4"
       d="m 327.32334,171.54655 c 1.37,0.15 2.24,0.87 2.26,2.3 0.02,1.21 -0.58,2.02 -1.89,2.06 -1.48,0.04 -2.31,-0.82 -2.34,-2.19 -0.03,-1.18 0.8,-1.89 1.98,-2.17 z"
       id="path579"
       style="fill:#062635;fill-opacity:1" />
    <path
       class="cls-4"
       d="m 614.76334,98.43655 c -0.26,1.21 -0.97,2.01 -2.19,1.99 -1.17,-0.02 -2.17,-0.72 -2.1,-1.97 0.07,-1.35 0.92,-2.29 2.41,-2.18 1.27,0.09 1.81,0.98 1.88,2.16 z"
       id="path580"
       style="fill:#062635;fill-opacity:1" />
    <path
       class="cls-4"
       d="m 365.53334,171.37655 c 1.42,0.31 2.18,1.07 2.13,2.22 -0.06,1.4 -1.09,2.16 -2.42,2.1 -1.19,-0.05 -1.94,-0.98 -1.88,-2.12 0.07,-1.37 1.07,-2.02 2.16,-2.2 z"
       id="path581"
       style="fill:#062635;fill-opacity:1" />
    <path
       class="cls-4"
       d="m 7.9733426,167.16655 c 3.5700004,0.03 6.6200004,3.2 6.5900004,6.84 -0.03,3.64 -2.83,6.36 -6.4700004,6.27 -3.83,-0.1 -6.53,-2.64 -6.59,-6.22 -0.06,-3.85 2.82,-6.93 6.47,-6.89 z"
       id="path582"
       style="fill:#062635;fill-opacity:1" />
    <path
       class="cls-4"
       d="m 2.3533426,155.17655 c -0.06,-3.37 2.46,-6.06 5.65,-6.05 2.9900004,0.01 5.5300004,2.53 5.6600004,5.6 0.13,3.23 -2.59,6.13 -5.6600004,6.05 -3.16,-0.08 -5.59,-2.49 -5.65,-5.6 z"
       id="path583"
       style="fill:#062635;fill-opacity:1" />
    <path
       class="cls-4"
       d="m 877.65334,177.83655 c -2.63,-0.01 -3.89,-1.38 -3.82,-4.11 0.07,-2.48 1.72,-4.08 4.11,-3.97 2.3,0.11 4.19,2.05 4.08,4.21 -0.11,2.26 -1.95,3.88 -4.37,3.86 z"
       id="path584"
       style="fill:#062635;fill-opacity:1" />
    <path
       class="cls-4"
       d="m 940.90334,136.29655 c -0.05,3.67 -3.19,6.8 -6.79,6.78 -3.99,-0.03 -7.03,-3.12 -6.95,-7.08 0.07,-3.64 3.66,-7 7.3,-6.82 3.64,0.18 6.5,3.34 6.45,7.12 z"
       id="path585"
       style="fill:#062635;fill-opacity:1" />
    <path
       class="cls-4"
       d="m 1073.8233,117.43655 c -0.07,4.15 -2.92,6.86 -7.07,6.73 -3.67,-0.12 -6.7,-3.27 -6.61,-6.86 0.09,-3.74 3.6,-7.06 7.22,-6.84 3.78,0.23 6.52,3.2 6.46,6.98 z"
       id="path586"
       style="fill:#062635;fill-opacity:1" />
    <path
       class="cls-4"
       d="m 1086.2233,180.61655 c -3.93,0.09 -6.72,-2.52 -6.89,-6.44 -0.17,-3.9 2.93,-7.29 6.66,-7.29 3.58,0 7.15,3.54 7.17,7.09 0.01,3.44 -3.25,6.55 -6.94,6.63 z"
       id="path587"
       style="fill:#062635;fill-opacity:1" />
    <path
       class="cls-4"
       d="m 1035.6133,136.10655 c 0,3.82 -2.56,6.36 -6.42,6.39 -3.91,0.03 -6.49,-2.43 -6.51,-6.22 -0.02,-4.02 2.71,-6.84 6.58,-6.79 3.44,0.05 6.36,3.09 6.35,6.62 z"
       id="path589"
       style="fill:#062635;fill-opacity:1" />
    <path
       class="cls-4"
       d="m 953.06334,167.16655 c 3.57,0.03 6.62,3.2 6.59,6.84 -0.03,3.64 -2.83,6.36 -6.47,6.27 -3.83,-0.1 -6.53,-2.64 -6.59,-6.22 -0.06,-3.85 2.82,-6.93 6.47,-6.89 z"
       id="path590"
       style="fill:#062635;fill-opacity:1" />
    <path
       class="cls-4"
       d="m 921.39334,155.83655 c -0.4,3.48 -3.76,6.12 -7.15,5.61 -3.2,-0.48 -5.81,-3.81 -5.42,-6.93 0.46,-3.7 3.32,-5.88 7.18,-5.47 3.26,0.35 5.77,3.51 5.4,6.79 z"
       id="path591"
       style="fill:#062635;fill-opacity:1" />
    <path
       class="cls-4"
       d="m 1054.3233,173.99655 c -0.03,3.39 -2.76,6.08 -6.24,6.15 -3.68,0.08 -5.94,-2.24 -5.97,-6.12 -0.03,-3.82 2.23,-6.34 5.75,-6.4 3.72,-0.07 6.49,2.66 6.46,6.37 z"
       id="path592"
       style="fill:#062635;fill-opacity:1" />
    <path
       class="cls-4"
       d="m 990.72334,161.02655 c -3.05,-0.07 -5.93,-3.31 -5.81,-6.54 0.13,-3.47 2.71,-5.67 6.52,-5.55 3.54,0.12 6.08,2.82 5.87,6.24 -0.19,3.16 -3.29,5.92 -6.58,5.85 z"
       id="path593"
       style="fill:#062635;fill-opacity:1" />
    <path
       class="cls-4"
       d="m 1042.1633,79.84655 c -0.11,-3.52 2.08,-6.080003 5.38,-6.290003 3.35,-0.22 6.6,2.490003 6.75,5.630003 0.15,3.09 -2.87,6.55 -5.83,6.68 -3.37,0.15 -6.19,-2.54 -6.29,-6.01 z"
       id="path594"
       style="fill:#062635;fill-opacity:1" />
    <path
       class="cls-4"
       d="m 915.22334,179.79655 c -4.03,0.07 -6.02,-1.85 -5.99,-5.81 0.02,-3.35 2.43,-6.08 5.5,-6.24 3.12,-0.16 6.62,3.29 6.56,6.47 -0.06,3.18 -2.6,5.51 -6.07,5.57 z"
       id="path595"
       style="fill:#062635;fill-opacity:1" />
    <path
       class="cls-4"
       d="m 914.88334,142.36655 c -3.43,-0.1 -5.83,-2.84 -5.65,-6.44 0.17,-3.32 2.77,-5.9 5.87,-5.84 3.18,0.07 6.27,3.2 6.18,6.26 -0.09,3.16 -3.24,6.11 -6.41,6.02 z"
       id="path596"
       style="fill:#062635;fill-opacity:1" />
    <path
       class="cls-4"
       d="m 1042.1933,136.23655 c -0.03,-3.38 2.35,-6.04 5.53,-6.19 3.24,-0.15 6.49,2.73 6.57,5.83 0.08,3.33 -3.13,6.52 -6.5,6.46 -3.2,-0.06 -5.56,-2.64 -5.59,-6.1 z"
       id="path597"
       style="fill:#062635;fill-opacity:1" />
    <path
       class="cls-4"
       d="m 909.31334,80.01655 c -0.08,-3.81 1.77,-5.97 5.26,-6.120003 3.64,-0.16 6.4,2.180003 6.57,5.560003 0.16,3.08 -2.86,6.25 -6.06,6.39 -3.14,0.13 -5.7,-2.45 -5.77,-5.83 z"
       id="path598"
       style="fill:#062635;fill-opacity:1" />
    <path
       class="cls-4"
       d="m 928.02334,154.38655 c 0.41,-3.24 3.63,-5.66 6.98,-5.25 3.15,0.39 5.36,3.32 4.96,6.6 -0.41,3.37 -3.56,5.82 -6.85,5.31 -3.06,-0.47 -5.48,-3.64 -5.09,-6.65 z"
       id="path599"
       style="fill:#062635;fill-opacity:1" />
    <path
       class="cls-4"
       d="m 1073.0133,136.33655 c 0,3.39 -2.87,6.14 -6.21,5.99 -2.96,-0.14 -5.89,-3.18 -5.84,-6.06 0.06,-3.13 2.7,-5.74 5.89,-5.82 3.6,-0.09 6.17,2.38 6.16,5.89 z"
       id="path600"
       style="fill:#062635;fill-opacity:1" />
    <path
       class="cls-4"
       d="m 1034.8933,155.11655 c -0.05,3.13 -2.72,5.82 -5.84,5.88 -2.86,0.06 -5.94,-2.96 -6.01,-5.88 -0.07,-3.17 3.01,-6.13 6.26,-6.02 3.3,0.11 5.63,2.63 5.58,6.01 z"
       id="path601"
       style="fill:#062635;fill-opacity:1" />
    <path
       class="cls-4"
       d="m 1048.0933,104.43655 c -3.24,-0.04 -5.87,-2.7 -5.86,-5.93 0.02,-3.19 2.73,-5.97 5.84,-5.99 2.85,-0.01 5.97,3.13 5.97,6.01 0,3.13 -2.84,5.95 -5.95,5.91 z"
       id="path602"
       style="fill:#062635;fill-opacity:1" />
    <path
       class="cls-4"
       d="m 1029.1233,111.43655 c 3.24,-0.03 5.67,2.52 5.66,5.92 -0.01,3.01 -2.49,5.52 -5.52,5.59 -3.02,0.07 -6.07,-2.77 -6.12,-5.7 -0.05,-2.96 2.85,-5.78 5.99,-5.8 z"
       id="path603"
       style="fill:#062635;fill-opacity:1" />
    <path
       class="cls-4"
       d="m 947.45334,155.17655 c -0.06,-3.37 2.46,-6.06 5.65,-6.05 2.99,0.01 5.53,2.53 5.66,5.6 0.13,3.23 -2.59,6.13 -5.66,6.05 -3.16,-0.08 -5.59,-2.49 -5.65,-5.6 z"
       id="path604"
       style="fill:#062635;fill-opacity:1" />
    <path
       class="cls-4"
       d="m 1110.8633,117.16655 c 0.02,3.21 -2.7,5.87 -5.93,5.79 -2.89,-0.07 -5.56,-2.76 -5.62,-5.69 -0.06,-2.93 2.53,-5.68 5.48,-5.8 3.16,-0.13 6.05,2.58 6.07,5.7 z"
       id="path605"
       style="fill:#062635;fill-opacity:1" />
    <path
       class="cls-4"
       d="m 920.51334,98.45655 c 0.07,3.22 -2.15,5.68 -5.26,5.85 -2.93,0.16 -5.57,-2.35 -5.73,-5.46 -0.15,-2.96 2.4,-5.72 5.37,-5.83 3.12,-0.11 5.55,2.24 5.62,5.43 z"
       id="path606"
       style="fill:#062635;fill-opacity:1" />
    <path
       class="cls-4"
       d="m 996.75334,136.42655 c -0.25,3.03 -2.91,5.31 -5.99,5.12 -3.29,-0.2 -5.54,-2.93 -5.18,-6.32 0.33,-3.14 2.83,-5.07 6.15,-4.77 3.19,0.29 5.28,2.78 5.01,5.97 z"
       id="path607"
       style="fill:#062635;fill-opacity:1" />
    <path
       class="cls-4"
       d="m 1048.0933,111.98655 c 3.44,-0.04 5.4,1.99 5.33,5.53 -0.05,3.01 -2.32,5.39 -5.17,5.44 -3.04,0.06 -5.8,-2.54 -5.79,-5.46 0,-3.1 2.43,-5.48 5.63,-5.51 z"
       id="path608"
       style="fill:#062635;fill-opacity:1" />
    <path
       class="cls-4"
       d="m 1105.0833,160.26655 c -3.42,0 -5.46,-2.04 -5.4,-5.42 0.05,-2.87 2.42,-5.39 5.15,-5.5 2.81,-0.11 5.66,2.61 5.79,5.5 0.13,3.06 -2.28,5.42 -5.54,5.42 z"
       id="path609"
       style="fill:#062635;fill-opacity:1" />
    <path
       class="cls-4"
       d="m 1067.1533,160.36655 c -3.27,0.07 -5.31,-1.77 -5.43,-4.87 -0.12,-3.09 2.29,-5.96 5.09,-6.04 2.88,-0.09 5.96,3.02 5.89,5.95 -0.06,2.74 -2.48,4.9 -5.55,4.96 z"
       id="path610"
       style="fill:#062635;fill-opacity:1" />
    <path
       class="cls-4"
       d="m 933.92334,168.60655 c 3.2,-0.07 5.68,2.21 5.75,5.28 0.07,3.03 -2.4,5.49 -5.55,5.52 -2.85,0.02 -5.31,-2.3 -5.42,-5.12 -0.13,-3.26 2.03,-5.61 5.22,-5.68 z"
       id="path611"
       style="fill:#062635;fill-opacity:1" />
    <path
       class="cls-4"
       d="m 990.89334,178.54655 c -2.89,-0.1 -5.05,-2.28 -4.97,-5.01 0.08,-2.68 2.56,-5.01 5.19,-4.89 2.91,0.13 4.79,2.18 4.74,5.17 -0.05,3.17 -1.81,4.85 -4.97,4.74 z"
       id="path612"
       style="fill:#062635;fill-opacity:1" />
    <path
       class="cls-4"
       d="m 1100.7633,136.15655 c -0.07,-2.66 1.53,-4.44 4.06,-4.54 2.55,-0.09 4.79,1.96 4.89,4.48 0.09,2.32 -2.33,4.65 -4.77,4.59 -2.41,-0.06 -4.12,-1.91 -4.18,-4.53 z"
       id="path613"
       style="fill:#062635;fill-opacity:1" />
    <path
       class="cls-4"
       d="m 1105.2233,177.84655 c -2.49,0.05 -4.09,-1.39 -4.24,-3.8 -0.15,-2.42 1.35,-4.14 3.74,-4.28 2.6,-0.16 4.47,1.54 4.46,4.07 0,2.51 -1.44,3.97 -3.97,4.02 z"
       id="path614"
       style="fill:#062635;fill-opacity:1" />
    <path
       class="cls-4"
       d="m 1048.2333,150.97655 c 2.2,0.1 4.05,2.1 3.96,4.27 -0.09,2.31 -1.96,4.07 -4.2,3.98 -2.22,-0.09 -4.03,-2.02 -3.98,-4.24 0.05,-2.13 2.13,-4.11 4.22,-4.01 z"
       id="path615"
       style="fill:#062635;fill-opacity:1" />
    <path
       class="cls-4"
       d="m 1032.8733,173.80655 c -0.03,2.26 -1.9,4.05 -4.12,3.93 -2.05,-0.11 -3.41,-1.79 -3.31,-4.11 0.09,-2.23 1.72,-3.84 3.75,-3.71 2.11,0.13 3.71,1.82 3.69,3.89 z"
       id="path616"
       style="fill:#062635;fill-opacity:1" />
    <path
       class="cls-4"
       d="m 897.14334,167.16655 c 3.57,0.03 6.62,3.2 6.59,6.84 -0.03,3.64 -2.83,6.36 -6.47,6.27 -3.83,-0.1 -6.53,-2.64 -6.59,-6.22 -0.06,-3.85 2.82,-6.93 6.47,-6.89 z"
       id="path617"
       style="fill:#062635;fill-opacity:1" />
    <path
       class="cls-4"
       d="m 891.53334,155.17655 c -0.06,-3.37 2.46,-6.06 5.65,-6.05 2.99,0.01 5.53,2.53 5.66,5.6 0.13,3.23 -2.59,6.13 -5.66,6.05 -3.16,-0.08 -5.59,-2.49 -5.65,-5.6 z"
       id="path618"
       style="fill:#062635;fill-opacity:1" />
  </g>
</svg>
