<?xml version="1.0" encoding="UTF-8" standalone="no"?>
<svg
   version="1.1"
   viewBox="0 0 276.90311 53.339363"
   fill="none"
   stroke="none"
   stroke-linecap="square"
   stroke-miterlimit="10"
   id="svg4"
   width="276.90311"
   height="53.339363"
   xmlns="http://www.w3.org/2000/svg"
   xmlns:svg="http://www.w3.org/2000/svg">
  <defs
     id="defs4">
    <clipPath
       clipPathUnits="userSpaceOnUse"
       id="clipPath51">
      <path
         d="M 0,595.276 H 841.89 V 0 H 0 Z"
         transform="translate(-184.5087,-416.58751)"
         id="path51" />
    </clipPath>
    <clipPath
       clipPathUnits="userSpaceOnUse"
       id="clipPath53">
      <path
         d="M 0,595.276 H 841.89 V 0 H 0 Z"
         transform="translate(-211.61101,-395.90961)"
         id="path53" />
    </clipPath>
    <clipPath
       clipPathUnits="userSpaceOnUse"
       id="clipPath55">
      <path
         d="M 0,595.276 H 841.89 V 0 H 0 Z"
         transform="translate(-240.16311,-406.00711)"
         id="path55" />
    </clipPath>
    <clipPath
       clipPathUnits="userSpaceOnUse"
       id="clipPath57">
      <path
         d="M 0,595.276 H 841.89 V 0 H 0 Z"
         transform="translate(-267.55501,-396.97231)"
         id="path57" />
    </clipPath>
    <clipPath
       clipPathUnits="userSpaceOnUse"
       id="clipPath59">
      <path
         d="M 0,595.276 H 841.89 V 0 H 0 Z"
         transform="translate(-166.3437,-416.00831)"
         id="path59" />
    </clipPath>
    <clipPath
       clipPathUnits="userSpaceOnUse"
       id="clipPath61">
      <path
         d="M 0,595.276 H 841.89 V 0 H 0 Z"
         transform="translate(-100.948,-390.56881)"
         id="path61" />
    </clipPath>
    <clipPath
       clipPathUnits="userSpaceOnUse"
       id="clipPath63">
      <path
         d="M 0,595.276 H 841.89 V 0 H 0 Z"
         transform="translate(-117.9559,-424.52661)"
         id="path63" />
    </clipPath>
  </defs>
  <clipPath
     id="p13.0">
    <path
       d="M 0,0 H 1280 V 720 H 0 Z"
       clip-rule="nonzero"
       id="path1" />
  </clipPath>
  <g
     clip-path="url(#p13.0)"
     id="g4"
     transform="translate(-11.863781,-49.040054)">
    <path
       id="path50"
       d="m 0,0 c -2.802,0 -5.846,-1.208 -7.875,-4.058 l -0.532,3.479 h -5.943 v -25.414 h 6.861 v 16.862 c 1.256,2.077 3.479,3.237 5.508,3.237 1.498,0 2.754,-0.532 3.382,-1.788 0.724,-1.449 0.773,-3.575 0.773,-5.459 v -12.852 h 6.86 v 13.19 c 0,3.624 -0.289,6.909 -2.271,9.469 C 5.169,-1.304 2.754,0 0,0"
       style="fill:#000000;fill-opacity:1;fill-rule:nonzero;stroke:none"
       transform="matrix(1.5455301,0,0,-1.5455301,149.81241,61.310197)"
       clip-path="url(#clipPath51)" />
    <path
       id="path52"
       d="m 0,0 c -3.768,0 -6.329,3.237 -6.329,7.392 0,4.155 2.561,7.392 6.329,7.392 3.769,0 6.281,-3.237 6.281,-7.392 C 6.281,3.237 3.769,0 0,0 m 0,20.678 c -7.778,0 -13.335,-5.798 -13.335,-13.286 0,-7.489 5.557,-13.287 13.335,-13.287 7.73,0 13.287,5.798 13.287,13.287 C 13.287,14.88 7.73,20.678 0,20.678"
       style="fill:#000000;fill-opacity:1;fill-rule:nonzero;stroke:none"
       transform="matrix(1.5455301,0,0,-1.5455301,191.6998,93.268514)"
       clip-path="url(#clipPath53)" />
    <path
       id="path54"
       d="m 0,0 c -2.126,0.869 -4.01,1.691 -4.01,3.285 0,1.208 1.159,1.933 2.464,1.933 1.933,0 3.72,-0.966 5.025,-2.126 L 7.247,7.247 C 4.88,9.47 1.836,10.58 -1.546,10.58 c -4.638,0 -9.083,-2.608 -9.083,-7.778 0,-4.445 3.333,-6.184 6.377,-7.488 2.513,-1.112 4.832,-1.885 4.832,-3.673 0,-1.546 -1.836,-2.222 -3.237,-2.222 -2.465,0 -4.059,1.111 -5.991,2.995 l -3.914,-4.058 c 2.802,-2.802 6.281,-4.348 10.243,-4.348 4.928,0 9.759,2.56 9.759,8.165 C 7.44,-2.996 3.285,-1.353 0,0"
       style="fill:#000000;fill-opacity:1;fill-rule:nonzero;stroke:none"
       transform="matrix(1.5455301,0,0,-1.5455301,235.82797,77.662513)"
       clip-path="url(#clipPath55)" />
    <path
       id="path56"
       d="m 0,0 c -1.449,-1.305 -3.092,-2.174 -5.073,-2.174 -2.029,0 -3.865,1.16 -3.865,3.382 0,2.995 2.947,3.914 5.459,3.914 1.064,0 2.175,-0.145 3.479,-0.436 z m -3.623,19.615 c -3.769,0 -7.682,-1.014 -10.919,-2.608 l 1.835,-4.928 c 2.223,1.159 4.784,2.222 7.682,2.222 C -1.304,14.301 0,12.368 0,9.179 V 8.793 c -1.594,0.338 -3.188,0.531 -4.59,0.531 -5.266,0 -11.064,-1.98 -11.064,-8.213 0,-5.218 4.397,-8.068 9.131,-8.068 2.706,0 5.267,0.725 6.91,2.754 L 0.918,-6.378 H 6.861 V 8.89 c 0,6.619 -3.431,10.725 -10.484,10.725"
       style="fill:#000000;fill-opacity:1;fill-rule:nonzero;stroke:none"
       transform="matrix(1.5455301,0,0,-1.5455301,278.16298,91.626051)"
       clip-path="url(#clipPath57)" />
    <path
       id="path58"
       d="m 0,0 h -7.827 l -8.213,-10.34 h -0.097 V 8.518 h -6.86 v -33.932 h 6.86 v 6.571 l 2.465,2.851 5.845,-9.422 H 0.58 l -9.663,14.784 z"
       style="fill:#000000;fill-opacity:1;fill-rule:nonzero;stroke:none"
       transform="matrix(1.5455301,0,0,-1.5455301,121.73784,62.205379)"
       clip-path="url(#clipPath59)" />
    <path
       id="path60"
       d="M 0,0 H 16.95 L 0,16.95 Z"
       style="fill:#000000;fill-opacity:1;fill-rule:nonzero;stroke:none"
       transform="matrix(1.5455301,0,0,-1.5455301,38.150298,101.52286)"
       clip-path="url(#clipPath61)" />
    <path
       id="path62"
       d="m 0,0 v 0 h -17.066 l -16.95,-16.95 v -17.066 z"
       style="fill:#000000;fill-opacity:1;fill-rule:nonzero;stroke:none"
       transform="matrix(1.5455301,0,0,-1.5455301,64.436533,49.040055)"
       clip-path="url(#clipPath63)" />
  </g>
</svg>
