<?xml version="1.0" encoding="UTF-8" standalone="no"?>
<!-- Created with Inkscape (http://www.inkscape.org/) -->

<svg
   width="126.53058mm"
   height="59.801865mm"
   viewBox="0 0 126.53058 59.801865"
   version="1.1"
   id="svg1"
   xmlns="http://www.w3.org/2000/svg"
   xmlns:svg="http://www.w3.org/2000/svg">
  <defs
     id="defs1">
    <clipPath
       clipPathUnits="userSpaceOnUse"
       id="clipPath10">
      <path
         d="M -78.767701,40.248572 H 749.42713 V -425.61101 H -78.767701 Z"
         clip-rule="nonzero"
         id="path11"
         style="stroke-width:0.647029" />
    </clipPath>
    <clipPath
       clipPathUnits="userSpaceOnUse"
       id="clipPath11">
      <path
         d="M -179.97901,59.284546 H 648.21582 V -406.57503 h -828.19483 z"
         clip-rule="nonzero"
         id="path12"
         style="stroke-width:0.647029" />
    </clipPath>
    <clipPath
       clipPathUnits="userSpaceOnUse"
       id="clipPath12">
      <path
         d="M -152.5871,50.249757 H 675.60773 V -415.60982 H -152.5871 Z"
         clip-rule="nonzero"
         id="path13"
         style="stroke-width:0.647029" />
    </clipPath>
    <clipPath
       clipPathUnits="userSpaceOnUse"
       id="clipPath13">
      <path
         d="M -124.03498,60.347264 H 704.15985 V -405.51231 h -828.19483 z"
         clip-rule="nonzero"
         id="path14"
         style="stroke-width:0.647029" />
    </clipPath>
    <clipPath
       clipPathUnits="userSpaceOnUse"
       id="clipPath14">
      <path
         d="M -96.932705,39.669365 H 731.26212 V -426.19021 H -96.932705 Z"
         clip-rule="nonzero"
         id="path15"
         style="stroke-width:0.647029" />
    </clipPath>
  </defs>
  <g
     id="layer1"
     transform="translate(-97.12791,-4.3746519)">
    <g
       id="g19"
       transform="matrix(1.3978102,0,0,1.3978102,-63.806055,-13.635177)">
      <rect
         style="font-variation-settings:normal;opacity:1;vector-effect:none;fill:#ffffff;fill-opacity:1;fill-rule:evenodd;stroke-width:0.265067;stroke-linecap:butt;stroke-linejoin:miter;stroke-miterlimit:4;stroke-dasharray:none;stroke-dashoffset:0;stroke-opacity:1;-inkscape-stroke:none;stop-color:#000000;stop-opacity:1"
         id="rect19"
         width="90.520584"
         height="42.782536"
         x="115.13292"
         y="12.884316" />
      <path
         id="path2"
         d="m 0,0 c -2.802,0 -5.846,-1.208 -7.875,-4.058 l -0.532,3.479 h -5.943 v -25.414 h 6.861 v 16.862 c 1.256,2.077 3.479,3.237 5.508,3.237 1.498,0 2.754,-0.532 3.382,-1.788 0.724,-1.449 0.773,-3.575 0.773,-5.459 v -12.852 h 6.86 v 13.19 c 0,3.624 -0.289,6.909 -2.271,9.469 C 5.169,-1.304 2.754,0 0,0"
         style="fill:#000000;fill-opacity:1;fill-rule:nonzero;stroke:none"
         transform="matrix(0.44721159,0,0,-0.44721159,148.58226,28.346217)"
         clip-path="url(#clipPath14)" />
      <path
         id="path3"
         d="m 0,0 c -3.768,0 -6.329,3.237 -6.329,7.392 0,4.155 2.561,7.392 6.329,7.392 3.769,0 6.281,-3.237 6.281,-7.392 C 6.281,3.237 3.769,0 0,0 m 0,20.678 c -7.778,0 -13.335,-5.798 -13.335,-13.286 0,-7.489 5.557,-13.287 13.335,-13.287 7.73,0 13.287,5.798 13.287,13.287 C 13.287,14.88 7.73,20.678 0,20.678"
         style="fill:#000000;fill-opacity:1;fill-rule:nonzero;stroke:none"
         transform="matrix(0.44721159,0,0,-0.44721159,160.70271,37.593613)"
         clip-path="url(#clipPath13)" />
      <path
         id="path4"
         d="m 0,0 c -2.126,0.869 -4.01,1.691 -4.01,3.285 0,1.208 1.159,1.933 2.464,1.933 1.933,0 3.72,-0.966 5.025,-2.126 L 7.247,7.247 C 4.88,9.47 1.836,10.58 -1.546,10.58 c -4.638,0 -9.083,-2.608 -9.083,-7.778 0,-4.445 3.333,-6.184 6.377,-7.488 2.513,-1.112 4.832,-1.885 4.832,-3.673 0,-1.546 -1.836,-2.222 -3.237,-2.222 -2.465,0 -4.059,1.111 -5.991,2.995 l -3.914,-4.058 c 2.802,-2.802 6.281,-4.348 10.243,-4.348 4.928,0 9.759,2.56 9.759,8.165 C 7.44,-2.996 3.285,-1.353 0,0"
         style="fill:#000000;fill-opacity:1;fill-rule:nonzero;stroke:none"
         transform="matrix(0.44721159,0,0,-0.44721159,173.47155,33.077891)"
         clip-path="url(#clipPath12)" />
      <path
         id="path5"
         d="m 0,0 c -1.449,-1.305 -3.092,-2.174 -5.073,-2.174 -2.029,0 -3.865,1.16 -3.865,3.382 0,2.995 2.947,3.914 5.459,3.914 1.064,0 2.175,-0.145 3.479,-0.436 z m -3.623,19.615 c -3.769,0 -7.682,-1.014 -10.919,-2.608 l 1.835,-4.928 c 2.223,1.159 4.784,2.222 7.682,2.222 C -1.304,14.301 0,12.368 0,9.179 V 8.793 c -1.594,0.338 -3.188,0.531 -4.59,0.531 -5.266,0 -11.064,-1.98 -11.064,-8.213 0,-5.218 4.397,-8.068 9.131,-8.068 2.706,0 5.267,0.725 6.91,2.754 L 0.918,-6.378 H 6.861 V 8.89 c 0,6.619 -3.431,10.725 -10.484,10.725"
         style="fill:#000000;fill-opacity:1;fill-rule:nonzero;stroke:none"
         transform="matrix(0.44721159,0,0,-0.44721159,185.72153,37.118353)"
         clip-path="url(#clipPath11)" />
      <path
         id="path6"
         d="m 0,0 h -7.827 l -8.213,-10.34 h -0.097 V 8.518 h -6.86 v -33.932 h 6.86 v 6.571 l 2.465,2.851 5.845,-9.422 H 0.58 l -9.663,14.784 z"
         style="fill:#000000;fill-opacity:1;fill-rule:nonzero;stroke:none"
         transform="matrix(0.44721159,0,0,-0.44721159,140.45866,28.605245)"
         clip-path="url(#clipPath10)" />
    </g>
  </g>
</svg>
